<mxfile host="app.diagrams.net" modified="2022-04-04T02:09:22.642Z" agent="5.0 (Windows NT 10.0; Win64; x64) AppleWebKit/537.36 (KHTML, like Gecko) Chrome/99.0.4844.84 Safari/537.36" etag="JEdvlXyRq7wb-1xunnjc" version="17.4.0" type="github">
  <diagram id="yorWovq_tISe7ccQDG3e" name="Page-1">
    <mxGraphModel dx="1422" dy="793" grid="1" gridSize="10" guides="1" tooltips="1" connect="1" arrows="1" fold="1" page="1" pageScale="1" pageWidth="827" pageHeight="1169" math="0" shadow="0">
      <root>
        <mxCell id="0" />
        <mxCell id="1" parent="0" />
        <mxCell id="5rIF5Xdq-ZtbnCXGbU9Z-1" value="物资管理员" style="shape=umlActor;verticalLabelPosition=bottom;verticalAlign=top;html=1;outlineConnect=0;fillColor=#d5e8d4;strokeColor=#82b366;fontStyle=1;fontSize=15;" parent="1" vertex="1">
          <mxGeometry x="250" y="30" width="30" height="60" as="geometry" />
        </mxCell>
        <mxCell id="5rIF5Xdq-ZtbnCXGbU9Z-2" value="事件响应员" style="shape=umlActor;verticalLabelPosition=bottom;verticalAlign=top;html=1;outlineConnect=0;fillColor=#dae8fc;strokeColor=#6c8ebf;fontStyle=1;fontSize=15;" parent="1" vertex="1">
          <mxGeometry x="330" y="30" width="30" height="60" as="geometry" />
        </mxCell>
        <mxCell id="5rIF5Xdq-ZtbnCXGbU9Z-3" value="运输员" style="shape=umlActor;verticalLabelPosition=bottom;verticalAlign=top;html=1;outlineConnect=0;fillColor=#f8cecc;strokeColor=#b85450;fontStyle=1;fontSize=15;" parent="1" vertex="1">
          <mxGeometry x="480" y="30" width="30" height="60" as="geometry" />
        </mxCell>
        <mxCell id="5rIF5Xdq-ZtbnCXGbU9Z-4" value="审批员" style="shape=umlActor;verticalLabelPosition=bottom;verticalAlign=top;html=1;outlineConnect=0;fillColor=#fff2cc;strokeColor=#d6b656;fontStyle=1;fontSize=15;" parent="1" vertex="1">
          <mxGeometry x="414" y="30" width="30" height="60" as="geometry" />
        </mxCell>
        <mxCell id="5rIF5Xdq-ZtbnCXGbU9Z-7" style="edgeStyle=orthogonalEdgeStyle;rounded=0;orthogonalLoop=1;jettySize=auto;html=1;exitX=0.5;exitY=0;exitDx=0;exitDy=0;entryX=0.5;entryY=1;entryDx=0;entryDy=0;fontSize=14;" parent="1" source="5rIF5Xdq-ZtbnCXGbU9Z-5" target="5rIF5Xdq-ZtbnCXGbU9Z-6" edge="1">
          <mxGeometry relative="1" as="geometry" />
        </mxCell>
        <mxCell id="5rIF5Xdq-ZtbnCXGbU9Z-26" style="edgeStyle=orthogonalEdgeStyle;rounded=0;orthogonalLoop=1;jettySize=auto;html=1;exitX=1;exitY=0.5;exitDx=0;exitDy=0;entryX=0;entryY=0.5;entryDx=0;entryDy=0;fontSize=16;" parent="1" source="5rIF5Xdq-ZtbnCXGbU9Z-5" target="5rIF5Xdq-ZtbnCXGbU9Z-11" edge="1">
          <mxGeometry relative="1" as="geometry" />
        </mxCell>
        <mxCell id="5rIF5Xdq-ZtbnCXGbU9Z-27" style="edgeStyle=orthogonalEdgeStyle;rounded=0;orthogonalLoop=1;jettySize=auto;html=1;exitX=1;exitY=0.5;exitDx=0;exitDy=0;entryX=0;entryY=0.5;entryDx=0;entryDy=0;fontSize=16;" parent="1" source="5rIF5Xdq-ZtbnCXGbU9Z-5" target="5rIF5Xdq-ZtbnCXGbU9Z-8" edge="1">
          <mxGeometry relative="1" as="geometry" />
        </mxCell>
        <mxCell id="5rIF5Xdq-ZtbnCXGbU9Z-28" style="edgeStyle=orthogonalEdgeStyle;rounded=0;orthogonalLoop=1;jettySize=auto;html=1;exitX=1;exitY=0.5;exitDx=0;exitDy=0;entryX=0;entryY=0.5;entryDx=0;entryDy=0;fontSize=16;" parent="1" source="5rIF5Xdq-ZtbnCXGbU9Z-5" target="5rIF5Xdq-ZtbnCXGbU9Z-9" edge="1">
          <mxGeometry relative="1" as="geometry" />
        </mxCell>
        <mxCell id="5rIF5Xdq-ZtbnCXGbU9Z-34" style="edgeStyle=orthogonalEdgeStyle;rounded=0;orthogonalLoop=1;jettySize=auto;html=1;exitX=1;exitY=0.5;exitDx=0;exitDy=0;entryX=0;entryY=0.5;entryDx=0;entryDy=0;fontSize=16;" parent="1" source="5rIF5Xdq-ZtbnCXGbU9Z-5" target="5rIF5Xdq-ZtbnCXGbU9Z-10" edge="1">
          <mxGeometry relative="1" as="geometry" />
        </mxCell>
        <mxCell id="5rIF5Xdq-ZtbnCXGbU9Z-35" style="edgeStyle=orthogonalEdgeStyle;rounded=0;orthogonalLoop=1;jettySize=auto;html=1;exitX=1;exitY=0.5;exitDx=0;exitDy=0;entryX=0;entryY=0.5;entryDx=0;entryDy=0;fontSize=16;" parent="1" source="5rIF5Xdq-ZtbnCXGbU9Z-5" target="5rIF5Xdq-ZtbnCXGbU9Z-13" edge="1">
          <mxGeometry relative="1" as="geometry" />
        </mxCell>
        <mxCell id="5rIF5Xdq-ZtbnCXGbU9Z-36" style="edgeStyle=orthogonalEdgeStyle;rounded=0;orthogonalLoop=1;jettySize=auto;html=1;exitX=1;exitY=0.5;exitDx=0;exitDy=0;entryX=0;entryY=0.5;entryDx=0;entryDy=0;fontSize=16;" parent="1" source="5rIF5Xdq-ZtbnCXGbU9Z-5" target="5rIF5Xdq-ZtbnCXGbU9Z-14" edge="1">
          <mxGeometry relative="1" as="geometry" />
        </mxCell>
        <mxCell id="5rIF5Xdq-ZtbnCXGbU9Z-37" style="edgeStyle=orthogonalEdgeStyle;rounded=0;orthogonalLoop=1;jettySize=auto;html=1;exitX=1;exitY=0.5;exitDx=0;exitDy=0;entryX=0;entryY=0.5;entryDx=0;entryDy=0;fontSize=16;" parent="1" source="5rIF5Xdq-ZtbnCXGbU9Z-5" target="5rIF5Xdq-ZtbnCXGbU9Z-15" edge="1">
          <mxGeometry relative="1" as="geometry" />
        </mxCell>
        <mxCell id="5rIF5Xdq-ZtbnCXGbU9Z-5" value="疫情应急&lt;br&gt;物资保障&lt;br&gt;配送管理系统" style="rounded=1;whiteSpace=wrap;html=1;fontSize=16;fillColor=#1ba1e2;strokeColor=#006EAF;fontColor=#ffffff;fontStyle=1" parent="1" vertex="1">
          <mxGeometry x="100" y="330" width="120" height="70" as="geometry" />
        </mxCell>
        <mxCell id="5rIF5Xdq-ZtbnCXGbU9Z-6" value="登录" style="rounded=1;whiteSpace=wrap;html=1;fontSize=14;fillColor=#f5f5f5;fontColor=#333333;strokeColor=#666666;fontStyle=1" parent="1" vertex="1">
          <mxGeometry x="125" y="260" width="70" height="30" as="geometry" />
        </mxCell>
        <mxCell id="2n492mgLMoSDfAVcd-Kv-6" style="edgeStyle=orthogonalEdgeStyle;rounded=0;orthogonalLoop=1;jettySize=auto;html=1;exitX=1;exitY=0.5;exitDx=0;exitDy=0;entryX=0;entryY=0.5;entryDx=0;entryDy=0;" edge="1" parent="1" source="5rIF5Xdq-ZtbnCXGbU9Z-8" target="2n492mgLMoSDfAVcd-Kv-5">
          <mxGeometry relative="1" as="geometry" />
        </mxCell>
        <mxCell id="5rIF5Xdq-ZtbnCXGbU9Z-8" value="事件管理" style="rounded=1;whiteSpace=wrap;html=1;fontSize=14;fillColor=#f5f5f5;fontColor=#333333;strokeColor=#666666;fontStyle=1" parent="1" vertex="1">
          <mxGeometry x="280" y="250" width="100" height="30" as="geometry" />
        </mxCell>
        <mxCell id="5rIF5Xdq-ZtbnCXGbU9Z-9" value="物资申请" style="rounded=1;whiteSpace=wrap;html=1;fontSize=14;fillColor=#f5f5f5;fontColor=#333333;strokeColor=#666666;fontStyle=1" parent="1" vertex="1">
          <mxGeometry x="280" y="290" width="100" height="30" as="geometry" />
        </mxCell>
        <mxCell id="5rIF5Xdq-ZtbnCXGbU9Z-10" value="物资审批" style="rounded=1;whiteSpace=wrap;html=1;fontSize=14;fillColor=#f5f5f5;fontColor=#333333;strokeColor=#666666;fontStyle=1" parent="1" vertex="1">
          <mxGeometry x="280" y="330" width="100" height="30" as="geometry" />
        </mxCell>
        <mxCell id="5rIF5Xdq-ZtbnCXGbU9Z-23" style="edgeStyle=orthogonalEdgeStyle;rounded=0;orthogonalLoop=1;jettySize=auto;html=1;exitX=1;exitY=0.5;exitDx=0;exitDy=0;entryX=0;entryY=0.5;entryDx=0;entryDy=0;fontSize=16;" parent="1" source="5rIF5Xdq-ZtbnCXGbU9Z-11" target="5rIF5Xdq-ZtbnCXGbU9Z-12" edge="1">
          <mxGeometry relative="1" as="geometry" />
        </mxCell>
        <mxCell id="5rIF5Xdq-ZtbnCXGbU9Z-25" style="edgeStyle=orthogonalEdgeStyle;rounded=0;orthogonalLoop=1;jettySize=auto;html=1;exitX=1;exitY=0.5;exitDx=0;exitDy=0;entryX=0;entryY=0.5;entryDx=0;entryDy=0;fontSize=16;" parent="1" source="5rIF5Xdq-ZtbnCXGbU9Z-11" target="5rIF5Xdq-ZtbnCXGbU9Z-22" edge="1">
          <mxGeometry relative="1" as="geometry" />
        </mxCell>
        <mxCell id="5rIF5Xdq-ZtbnCXGbU9Z-11" value="物资管理" style="rounded=1;whiteSpace=wrap;html=1;fontSize=14;fillColor=#f5f5f5;fontColor=#333333;strokeColor=#666666;fontStyle=1" parent="1" vertex="1">
          <mxGeometry x="280" y="210" width="100" height="30" as="geometry" />
        </mxCell>
        <mxCell id="5rIF5Xdq-ZtbnCXGbU9Z-12" value="物资分类" style="rounded=1;whiteSpace=wrap;html=1;fontSize=14;fillColor=#f5f5f5;fontColor=#333333;strokeColor=#666666;fontStyle=1" parent="1" vertex="1">
          <mxGeometry x="435" y="190" width="120" height="30" as="geometry" />
        </mxCell>
        <mxCell id="2n492mgLMoSDfAVcd-Kv-8" style="edgeStyle=orthogonalEdgeStyle;rounded=0;orthogonalLoop=1;jettySize=auto;html=1;exitX=1;exitY=0.5;exitDx=0;exitDy=0;entryX=0;entryY=0.5;entryDx=0;entryDy=0;" edge="1" parent="1" source="5rIF5Xdq-ZtbnCXGbU9Z-13" target="2n492mgLMoSDfAVcd-Kv-7">
          <mxGeometry relative="1" as="geometry" />
        </mxCell>
        <mxCell id="5rIF5Xdq-ZtbnCXGbU9Z-13" value="配送管理" style="rounded=1;whiteSpace=wrap;html=1;fontSize=14;fillColor=#f5f5f5;fontColor=#333333;strokeColor=#666666;fontStyle=1" parent="1" vertex="1">
          <mxGeometry x="280" y="370" width="100" height="30" as="geometry" />
        </mxCell>
        <mxCell id="5rIF5Xdq-ZtbnCXGbU9Z-14" value="运输管理" style="rounded=1;whiteSpace=wrap;html=1;fontSize=14;fillColor=#f5f5f5;fontColor=#333333;strokeColor=#666666;fontStyle=1" parent="1" vertex="1">
          <mxGeometry x="280" y="410" width="100" height="30" as="geometry" />
        </mxCell>
        <mxCell id="5rIF5Xdq-ZtbnCXGbU9Z-33" style="edgeStyle=orthogonalEdgeStyle;rounded=0;orthogonalLoop=1;jettySize=auto;html=1;exitX=1;exitY=0.5;exitDx=0;exitDy=0;entryX=0;entryY=0.5;entryDx=0;entryDy=0;fontSize=16;" parent="1" source="5rIF5Xdq-ZtbnCXGbU9Z-15" target="5rIF5Xdq-ZtbnCXGbU9Z-16" edge="1">
          <mxGeometry relative="1" as="geometry" />
        </mxCell>
        <mxCell id="5rIF5Xdq-ZtbnCXGbU9Z-15" value="配送单" style="rounded=1;whiteSpace=wrap;html=1;fontSize=14;fillColor=#f5f5f5;fontColor=#333333;strokeColor=#666666;fontStyle=1" parent="1" vertex="1">
          <mxGeometry x="280" y="450" width="100" height="30" as="geometry" />
        </mxCell>
        <mxCell id="5rIF5Xdq-ZtbnCXGbU9Z-16" value="更新配送状态" style="rounded=1;whiteSpace=wrap;html=1;fontSize=14;fillColor=#f5f5f5;fontColor=#333333;strokeColor=#666666;fontStyle=1" parent="1" vertex="1">
          <mxGeometry x="415" y="450" width="100" height="30" as="geometry" />
        </mxCell>
        <mxCell id="5rIF5Xdq-ZtbnCXGbU9Z-22" value="物资库存" style="rounded=1;whiteSpace=wrap;html=1;fontSize=14;fillColor=#f5f5f5;fontColor=#333333;strokeColor=#666666;fontStyle=1" parent="1" vertex="1">
          <mxGeometry x="435" y="230" width="115" height="30" as="geometry" />
        </mxCell>
        <mxCell id="2n492mgLMoSDfAVcd-Kv-5" value="事件详情" style="rounded=1;whiteSpace=wrap;html=1;fontSize=14;fillColor=#f5f5f5;fontColor=#333333;strokeColor=#666666;fontStyle=1" vertex="1" parent="1">
          <mxGeometry x="435" y="270" width="115" height="30" as="geometry" />
        </mxCell>
        <mxCell id="2n492mgLMoSDfAVcd-Kv-7" value="调配物资&lt;br&gt;规划路线" style="rounded=1;whiteSpace=wrap;html=1;fontSize=14;fillColor=#f5f5f5;fontColor=#333333;strokeColor=#666666;fontStyle=1" vertex="1" parent="1">
          <mxGeometry x="440" y="365" width="115" height="40" as="geometry" />
        </mxCell>
        <mxCell id="2n492mgLMoSDfAVcd-Kv-21" style="edgeStyle=orthogonalEdgeStyle;rounded=0;orthogonalLoop=1;jettySize=auto;html=1;exitX=0.5;exitY=1;exitDx=0;exitDy=0;entryX=0.5;entryY=0;entryDx=0;entryDy=0;" edge="1" parent="1" source="2n492mgLMoSDfAVcd-Kv-12" target="2n492mgLMoSDfAVcd-Kv-13">
          <mxGeometry relative="1" as="geometry" />
        </mxCell>
        <mxCell id="2n492mgLMoSDfAVcd-Kv-12" value="新建事件&lt;br&gt;发生地点，坐标等" style="rounded=1;whiteSpace=wrap;html=1;fillColor=#dae8fc;strokeColor=#6c8ebf;" vertex="1" parent="1">
          <mxGeometry x="260" y="555" width="90" height="45" as="geometry" />
        </mxCell>
        <mxCell id="2n492mgLMoSDfAVcd-Kv-22" style="edgeStyle=orthogonalEdgeStyle;rounded=0;orthogonalLoop=1;jettySize=auto;html=1;exitX=0.5;exitY=1;exitDx=0;exitDy=0;entryX=0.5;entryY=0;entryDx=0;entryDy=0;" edge="1" parent="1" source="2n492mgLMoSDfAVcd-Kv-13" target="2n492mgLMoSDfAVcd-Kv-14">
          <mxGeometry relative="1" as="geometry" />
        </mxCell>
        <mxCell id="2n492mgLMoSDfAVcd-Kv-13" value="申请物资&lt;br&gt;规划路线" style="rounded=1;whiteSpace=wrap;html=1;fillColor=#dae8fc;strokeColor=#6c8ebf;" vertex="1" parent="1">
          <mxGeometry x="260" y="640" width="90" height="45" as="geometry" />
        </mxCell>
        <mxCell id="2n492mgLMoSDfAVcd-Kv-23" style="edgeStyle=orthogonalEdgeStyle;rounded=0;orthogonalLoop=1;jettySize=auto;html=1;exitX=0.5;exitY=1;exitDx=0;exitDy=0;entryX=0.5;entryY=0;entryDx=0;entryDy=0;" edge="1" parent="1" source="2n492mgLMoSDfAVcd-Kv-14" target="2n492mgLMoSDfAVcd-Kv-15">
          <mxGeometry relative="1" as="geometry" />
        </mxCell>
        <mxCell id="2n492mgLMoSDfAVcd-Kv-14" value="提交审批" style="rounded=1;whiteSpace=wrap;html=1;fillColor=#dae8fc;strokeColor=#6c8ebf;" vertex="1" parent="1">
          <mxGeometry x="260" y="710" width="90" height="45" as="geometry" />
        </mxCell>
        <mxCell id="2n492mgLMoSDfAVcd-Kv-24" style="edgeStyle=orthogonalEdgeStyle;rounded=0;orthogonalLoop=1;jettySize=auto;html=1;exitX=0.5;exitY=1;exitDx=0;exitDy=0;entryX=0.5;entryY=0;entryDx=0;entryDy=0;" edge="1" parent="1" source="2n492mgLMoSDfAVcd-Kv-15" target="2n492mgLMoSDfAVcd-Kv-16">
          <mxGeometry relative="1" as="geometry" />
        </mxCell>
        <mxCell id="2n492mgLMoSDfAVcd-Kv-15" value="通过审批" style="rounded=1;whiteSpace=wrap;html=1;fillColor=#dae8fc;strokeColor=#6c8ebf;" vertex="1" parent="1">
          <mxGeometry x="260" y="780" width="90" height="45" as="geometry" />
        </mxCell>
        <mxCell id="2n492mgLMoSDfAVcd-Kv-25" style="edgeStyle=orthogonalEdgeStyle;rounded=0;orthogonalLoop=1;jettySize=auto;html=1;exitX=0.5;exitY=1;exitDx=0;exitDy=0;entryX=0.5;entryY=0;entryDx=0;entryDy=0;" edge="1" parent="1" source="2n492mgLMoSDfAVcd-Kv-16" target="2n492mgLMoSDfAVcd-Kv-17">
          <mxGeometry relative="1" as="geometry" />
        </mxCell>
        <mxCell id="2n492mgLMoSDfAVcd-Kv-16" value="开始运输" style="rounded=1;whiteSpace=wrap;html=1;fillColor=#dae8fc;strokeColor=#6c8ebf;" vertex="1" parent="1">
          <mxGeometry x="260" y="850" width="90" height="45" as="geometry" />
        </mxCell>
        <mxCell id="2n492mgLMoSDfAVcd-Kv-26" style="edgeStyle=orthogonalEdgeStyle;rounded=0;orthogonalLoop=1;jettySize=auto;html=1;exitX=1;exitY=0.5;exitDx=0;exitDy=0;entryX=0;entryY=0.5;entryDx=0;entryDy=0;" edge="1" parent="1" source="2n492mgLMoSDfAVcd-Kv-17" target="2n492mgLMoSDfAVcd-Kv-19">
          <mxGeometry relative="1" as="geometry" />
        </mxCell>
        <mxCell id="2n492mgLMoSDfAVcd-Kv-17" value="更新配送状态" style="rounded=1;whiteSpace=wrap;html=1;fillColor=#dae8fc;strokeColor=#6c8ebf;" vertex="1" parent="1">
          <mxGeometry x="260" y="920" width="90" height="45" as="geometry" />
        </mxCell>
        <mxCell id="2n492mgLMoSDfAVcd-Kv-20" style="edgeStyle=orthogonalEdgeStyle;rounded=0;orthogonalLoop=1;jettySize=auto;html=1;exitX=1;exitY=0.5;exitDx=0;exitDy=0;entryX=0;entryY=0.5;entryDx=0;entryDy=0;" edge="1" parent="1" source="2n492mgLMoSDfAVcd-Kv-18" target="2n492mgLMoSDfAVcd-Kv-12">
          <mxGeometry relative="1" as="geometry" />
        </mxCell>
        <mxCell id="2n492mgLMoSDfAVcd-Kv-18" value="发生事件" style="ellipse;whiteSpace=wrap;html=1;aspect=fixed;fillColor=#d5e8d4;strokeColor=#82b366;" vertex="1" parent="1">
          <mxGeometry x="115" y="537.5" width="80" height="80" as="geometry" />
        </mxCell>
        <mxCell id="2n492mgLMoSDfAVcd-Kv-19" value="配送结束" style="ellipse;whiteSpace=wrap;html=1;aspect=fixed;fillColor=#ffe6cc;strokeColor=#d79b00;" vertex="1" parent="1">
          <mxGeometry x="435" y="902.5" width="80" height="80" as="geometry" />
        </mxCell>
      </root>
    </mxGraphModel>
  </diagram>
</mxfile>
